<svg xmlns="http://www.w3.org/2000/svg" xml:space="preserve" viewBox="0 0 66 66">
  <path fill="#ffffff" d="M55.175 39.375v-28.2h-40.3v4.2h-4v3.9h-4v29.5h35.2c1.1 4.7 5.8 7.6 10.5 6.5 4.7-1.1 7.6-5.8 6.5-10.5-.6-2.3-2-4.2-3.9-5.4zm-38.9-26.9h37.6v26.2c-.9-.4-1.8-.6-2.7-.6v-22.7h-34.9v-2.9zm-4.1 4.2h37.6v21.4c-.9.1-1.8.3-2.7.6v-19.5h-34.9v-2.5zm-4 30.7v-26.8h37.6v18.8h.1c-2.5 1.6-4.1 4.4-4.1 7.4v.7l-33.6-.1zm42.3 6.7c-4.1 0-7.4-3.3-7.4-7.4s3.3-7.4 7.4-7.4 7.4 3.3 7.4 7.4c0 4.1-3.3 7.4-7.4 7.4zm4-11 .9.9-6.3 6.3-3.6-3.6.9-.9 2.7 2.7 5.4-5.4zm-18.9-11.3c1.2 0 2.1-.9 2.1-2.1s-.9-2.1-2.1-2.1c-.6 0-1.1.2-1.5.6l-5.1-2.5v-.3c0-1.2-.9-2.1-2.1-2.1-1.2 0-2.1.9-2.1 2.1v.3l-5 2.5c-.8-.8-2.2-.8-3 .1-.8.8-.8 2.2.1 3 .4.4.9.6 1.4.6.2 0 .4 0 .6-.1l1.5 2.2-1.5 2.3c-.2-.1-.4-.1-.5-.1-1.2 0-2.1.9-2.1 2.1 0 1.2.9 2.1 2.1 2.1.6 0 1.1-.2 1.5-.6l5.1 2.5v.3c0 1.2.9 2.1 2.1 2.1 1.2 0 2.1-.9 2.1-2.1v-.3l5.1-2.5c.8.8 2.2.8 3 0 .8-.8.8-2.2 0-3-.4-.4-.9-.6-1.5-.6-.2 0-.4 0-.5.1l-1.5-2.3 1.5-2.3c0 .1.1.1.3.1zm-2.1 6.8-4.6 2.3 1.9-2.8.7-1 2 1v.5zm-13.1-.6 2-1 2.6 3.9-4.6-2.3c.1-.2.1-.4 0-.6zm8.7-3.7v-.6l2-1 .9 1.3-.9 1.3-2-1zm-.6-1.8c-.2-.2-.5-.4-.8-.5v-4.4l2.7 4-1.9.9zm-1.5 2.3c-.4 0-.8-.3-.8-.8s.3-.8.8-.8c.4 0 .8.3.8.8s-.4.8-.8.8zm-4.1.5-.9-1.3.9-1.3 2 1v.6l-2 1zm2.6-2.8-1.8-.9 2.7-4v4.4c-.4.1-.7.3-.9.5zm0 3c.2.2.5.4.8.5v4.4l-2.7-4 1.9-.9zm2.2.5c.3-.1.6-.3.8-.5l1.8.9-2.7 4v-4.4zm3.8-5-2.6-3.9 4.6 2.3v.6l-2 1zm-9.1 0-2-1v-.5l4.6-2.3-2.6 3.8zm13.2-2.1c.4 0 .8.3.8.8 0 .4-.3.8-.8.8-.4 0-.8-.3-.8-.8.1-.5.4-.8.8-.8zm-8.6-4.3c.4 0 .8.3.8.8s-.3.8-.8.8-.8-.3-.8-.8.4-.8.8-.8zm-9.4 5.1c0-.4.3-.8.8-.8.4 0 .8.3.8.8 0 .4-.3.8-.8.8s-.8-.3-.8-.8zm2.7 1.7 1.4.7-.5.7-.9-1.4zm.9 3.8.5.7-.8.4-.6.3.9-1.4zm-2.8 3.9c-.4 0-.8-.3-.8-.8 0-.4.3-.8.8-.8.4 0 .8.3.8.8-.1.4-.4.8-.8.8zm8.6 4.3c-.4 0-.8-.3-.8-.8 0-.4.3-.8.8-.8.4 0 .8.3.8.8 0 .4-.4.8-.8.8zm9.4-5.1c0 .4-.3.8-.8.8s-.8-.3-.8-.8.3-.8.8-.8c.4 0 .8.4.8.8zm-2.7-1.7-.6-.3-.8-.4.5-.7.9 1.4zm-1.4-4.5 1.4-.7-.9 1.4-.5-.7z"/>
  <path fill="none" d="M.975 1.275h64v64h-64z"/>
</svg>
