<svg xmlns="http://www.w3.org/2000/svg" xml:space="preserve" viewBox="0 0 66 66">
  <path fill="#ffffff" fill-rule="evenodd" d="M58.045 45.645v-29.9h-50.1v29.9h20.1l-1.1 3.9h-4.1v1.3h20.3v-1.3h-4.1l-1.1-3.9h20.1zm-48.7-28.6h47.4v27.3h-47.4v-27.3zm28.3 32.5h-9.3l1.1-3.9h7.1l1.1 3.9zm-27-6.5h44.7v-24.7h-44.7v24.7zm1.4-23.4h42v22.1h-42v-22.1zm21 15.6c3.9-.2 7-3.5 6.8-7.4s-3.5-7-7.4-6.8c-3.8.2-6.8 3.3-6.8 7.1 0 4 3.3 7.2 7.4 7.1zm0-13c3.2.1 5.7 2.9 5.6 6.1s-2.9 5.7-6.1 5.6c-3.1-.1-5.6-2.7-5.6-5.8 0-3.3 2.8-6 6.1-5.9zm-11.6 14.3h27.1v1.3h-27.1v1.3h-1.3v-1.3h-2.7v-1.3h2.7v-1.3h1.4v1.3zm9.5-12.3v7.6l6-3.8-6-3.8zm1.4 2.5 2.2 1.4-2.2 1.4v-2.8z" clip-rule="evenodd"/>
  <path fill="none" d="M-.455-.255h67v67h-67z"/>
</svg>
