<svg xmlns="http://www.w3.org/2000/svg" xml:space="preserve" viewBox="0 0 66 66">
  <path fill="#ffffff" fill-rule="evenodd" d="M33.11 29.8c-7.3-.1-13.2 5.8-13.3 13-.1 7.3 5.8 13.2 13 13.3s13.2-5.8 13.3-13V43c0-7.3-5.8-13.1-13-13.2zm0 1.3c2.7 0 5.3.9 7.4 2.6.3.6.6 1.2.8 1.9l1.9 1.3c.3.5.6 1 .8 1.5l-2.5-1.6c.1.5.2 1.1.2 1.6l2.8 1.8c.1.4.2.8.2 1.2l-3-2c0 .5 0 1-.1 1.4l3.2 2.1v1l-3.3-2.2c-.1.4-.2.9-.3 1.3l3.5 2.3c-.1.3-.1.6-.2.9l-3.5-2.3c-.2.4-.3.8-.5 1.2l3.7 2.4c-.1.3-.2.5-.4.8l-3.7-2.4c-.2.4-.5.7-.7 1l3.8 2.5c-.1.2-.3.5-.5.7l-3.9-2.5-.9.9 4 2.6-.6.6-4-2.6c-.3.3-.7.5-1.1.8l4.1 2.7c-.2.2-.5.4-.7.5l-4.2-2.7c-.4.2-.9.4-1.3.6l4.3 2.8c-.3.1-.6.3-.9.4l-4.4-2.9c-.6.2-1.1.3-1.7.4l4.6 3c-.4.1-.8.2-1.2.2l-4.7-3.1h-.5c-.7 0-1.4-.1-2.1-.2l5 3.3c-.7 0-1.4-.1-2-.3l-5.9-3.9c-.2-.1-.3-.2-.5-.2-4.1-5.1-3.3-12.6 1.8-16.8 1.9-1.7 4.5-2.6 7.2-2.6zm23.2-17-5.9-5.9-4.6 4.6 1.1 1.1-2.5 1.3 4.9 5 1.2-2.5 1.1 1.1 4.7-4.7zm-5.9-4.1 4.1 4.1-2.8 2.9-4.1-4.1 2.8-2.9zm-1.4 8.1-2.5-2.5 1.3-.7 1.9 1.9-.7 1.3zm-6.6.4h3.7v3.8h-1.2v-1.6l-8 8.1-15.9-13.3.8-1 15 12.6 7.2-7.3h-1.6v-1.3zm0 6.3h3.7v3.8h-1.2V27l-3.1 3.1-.9-.9 3.1-3.2h-1.6v-1.2zm-28-16.3c-2.4 0-4.4 2-4.3 4.4 0 1.7 1 3.2 2.5 3.9v2.9h1.2v.6h1.2v-.6h1.2v-3c2.2-1.1 3.1-3.7 2-5.9-.6-1.3-2.1-2.3-3.8-2.3zm.6 8.8v1.3h-1.2v-1.3h1.2zm.5-1.5 1-1.9-1.1-.6-1 1.9-1-1.9-1.1.6 1 1.9c-1.6-.6-2.4-2.4-1.8-4 .6-1.6 2.4-2.4 4-1.8 1.6.6 2.4 2.4 1.8 4-.3.8-.9 1.5-1.8 1.8z" clip-rule="evenodd"/>
  <path fill="none" d="M.01.3h66v66h-66V.3z"/>
</svg>
