<svg xmlns="http://www.w3.org/2000/svg" xml:space="preserve" viewBox="0 0 66 66">
  <path fill="#ffffff" fill-rule="evenodd" d="M50.81 25.9h-.4l-8-4.6h-4.6l-8-4.6h-4.6l-8-4.6h-5.3v42.1h5.3l8-4.6h4.6l8-4.6h4.6l8-4.6h5V25.9h-4.6zm-1.1 5.7v5.8l-1.8-4.1 1.8-4.1v2.4zm-31.9 12.5v-26l3.3 15.2-3.3 15.2v-4.4zm19.3-3.4-2.1-7.4 2.2-7.4v14.8zm1.2-10.3V27h3.4v3.4h-3.4zm3.4 1.2V35h-3.4v-3.4h3.4zm-3.4 4.5h3.4v3.4h-3.4v-3.4zm4.5 3.5v-15l3.8 8.7-3.8 8.7v-2.4zm.7-16.3 6 3.4-2.3 5.2-3.7-8.6zm-1.8 2.6h-3.4v-3.4h3.4v3.4zm-7.3 5.4-3.7-12.7 6.4 3.6-2.7 9.1zm-8.6 3.7v-3.4h3.4V35h-3.4zm3.4 1.1v3.4h-3.4v-3.4h3.4zm-3.4-5.7V27h3.4v3.4h-3.4zm0-4.5v-3.4h3.4v3.4h-3.4zm-1.2 0V44l-2.3-10.7 2.3-10.7v3.3zm1.2 14.8h3.4v3.4h-3.4v-3.4zm4.5 3.4V21.3l3.5 12-3.5 12v-1.2zm-1.1-22.8h-3.4v-3.4h3.4v3.4zm-7.5 9.3-3.7-16.7 6.5 3.7-2.8 13zm0 5.4 2.8 13-6.5 3.7 3.7-16.7zm4.1 9.2h3.4v3.4h-3.4v-3.4zm8.6-9.9 2.6 9.1-6.3 3.6 3.7-12.7zm3.9 5.4h3.4v3.4h-3.4v-3.4zm9-6 2.3 5.2-6 3.4 3.7-8.6zm-34.1-21.3h3.4v3.4h-3.4v-3.4zm0 4.5h3.4v3.4h-3.4v-3.4zm0 4.6h3.4v3.4h-3.4v-3.4zm0 4.5h3.4v3.4h-3.4V27zm0 4.6h3.4V35h-3.4v-3.4zm0 4.5h3.4v3.4h-3.4v-3.4zm0 4.6h3.4v3.4h-3.4v-3.4zm0 4.5h3.4v3.4h-3.4v-3.4zm0 4.6h3.4v3.4h-3.4v-3.4zm41-10.2h-3.4v-3.4h3.4v3.4zm0-4.6h-3.4v-3.4h3.4V35zm-3.4-4.6V27h3.4v3.4h-3.4z" clip-rule="evenodd"/>
  <path fill="none" d="M4.01 4.1h58v58.4h-58V4.1z"/>
</svg>
