<svg xmlns="http://www.w3.org/2000/svg" xml:space="preserve" viewBox="0 0 66 66">
  <path fill="#ffffff" d="M40.854 11.554h-29.6v43.5h43.5v-43.5h-13.9zm11.3 14.6v14.2l1.3.4v13h-13l-.4-1.3h-14.1l-.4 1.3h-13v-13l1.3-.4v-14.2l-1.3-.4v-13h13l.4 1.3h14.2l.4-1.3h13v13l-1.4.4zm-34.3-8h2.6v2.6h-2.6v-2.6zm3.9 0h2.6v2.6h-2.6v-2.6zm4 0h2.6v2.6h-2.6v-2.6zm4 0h2.6v2.6h-2.6v-2.6zm3.9 0h2.7v2.6h-2.6l-.1-2.6zm4 0h2.6v2.6h-2.6v-2.6zm3.9 0h2.6v2.6h-2.6v-2.6zm4 0h2.6v2.6h-2.6v-2.6zm-27.7 3.9h2.6v2.6h-2.6v-2.6zm3.9 0h2.6v2.6h-2.6v-2.6zm4 0h2.6v2.6h-2.6v-2.6zm4 0h2.6v2.6h-2.6v-2.6zm3.9 0h2.7v2.6h-2.6l-.1-2.6zm4 0h2.6v2.6h-2.6v-2.6zm3.9 0h2.6v2.6h-2.6v-2.6zm4 0h2.6v2.6h-2.6v-2.6zm-27.7 4h2.6v2.6h-2.6v-2.6zm3.9 0h2.6v2.6h-2.6v-2.6zm4 0h2.6v2.6h-2.6v-2.6zm4 0h2.6v2.6h-2.6v-2.6zm3.9 0h2.6v2.6h-2.6v-2.6zm4 0h2.6v2.6h-2.6v-2.6zm3.9 0h2.6v2.6h-2.6v-2.6zm4 0h2.6v2.6h-2.6v-2.6zm-27.7 3.9h2.6v2.6h-2.6v-2.6zm3.9 0h2.6v2.6h-2.6v-2.6zm4 0h2.6v2.6h-2.6v-2.6zm4 0h2.6v2.6h-2.6v-2.6zm3.9 0h2.7v2.6h-2.6l-.1-2.6zm4 0h2.6v2.6h-2.6v-2.6zm3.9 0h2.6v2.6h-2.6v-2.6zm4 0h2.6v2.6h-2.6v-2.6zm-27.7 4h2.6v2.6h-2.6v-2.6zm3.9 0h2.6v2.6h-2.6v-2.6zm4 0h2.6v2.6h-2.6v-2.6zm4 0h2.6v2.6h-2.6v-2.6zm3.9 0h2.7v2.6h-2.6l-.1-2.6zm4 0h2.6v2.6h-2.6v-2.6zm3.9 0h2.6v2.6h-2.6v-2.6zm4 0h2.6v2.6h-2.6v-2.6zm-27.7 4h2.6v2.6h-2.6v-2.6zm3.9 0h2.6v2.6h-2.6v-2.6zm4 0h2.6v2.6h-2.6v-2.6zm4 0h2.6v2.6h-2.6v-2.6zm3.9 0h2.7v2.6h-2.6l-.1-2.6zm4 0h2.6v2.6h-2.6v-2.6zm3.9 0h2.6v2.6h-2.6v-2.6zm4 0h2.6v2.6h-2.6v-2.6zm-27.7 3.9h2.6v2.6h-2.6v-2.6zm3.9 0h2.6v2.6h-2.6v-2.6zm4 0h2.6v2.6h-2.6v-2.6zm4 0h2.6v2.6h-2.6v-2.6zm3.9 0h2.7v2.6h-2.6l-.1-2.6zm4 0h2.6v2.6h-2.6v-2.6zm3.9 0h2.6v2.6h-2.6v-2.6zm4 0h2.6v2.6h-2.6v-2.6zm-27.7 4h2.6v2.6h-2.6v-2.6zm3.9 0h2.6v2.6h-2.6v-2.6zm4 0h2.6v2.6h-2.6v-2.6zm4 0h2.6v2.6h-2.6v-2.6zm3.9 0h2.7v2.6h-2.6l-.1-2.6zm4 0h2.6v2.6h-2.6v-2.6zm3.9 0h2.6v2.6h-2.6v-2.6zm4 0h2.6v2.6h-2.6v-2.6z"/>
  <path fill="none" d="M1.054 1.254h64v64h-64z"/>
</svg>
