<svg xmlns="http://www.w3.org/2000/svg" xml:space="preserve" viewBox="0 0 66 66">
  <path fill="#ffffff" fill-rule="evenodd" d="m55.5 17.4-4.8-1 1.3-1.3-.9-.9-1.3 1.3-.9-4.7-6.7 6.7c-9.7-6.1-22.4-3.1-28.5 6.6s-3.1 22.4 6.6 28.5c9.7 6.1 22.4 3.1 28.5-6.6 4.2-6.7 4.2-15.2 0-21.9l6.7-6.7zm-6.6.1 3.9.8-5.5 5.5-3.9-.8-.8-3.9.2-.2 5.3-5.3.8 3.9zm1.7 17.6c0 10.7-8.6 19.4-19.3 19.4-10.7 0-19.4-8.6-19.4-19.3s8.6-19.4 19.3-19.4c3.5 0 7 1 10 2.8l.9 4.7-1.5 1.5c-5.8-5.3-14.7-4.9-19.9.9-5.3 5.8-4.9 14.7.9 19.9 5.8 5.3 14.7 4.9 19.9-.9 4.9-5.4 4.9-13.6 0-19l1.5-1.5 4.8 1c1.8 2.9 2.8 6.4 2.8 9.9zm-19.1.6 4.4-4.4c.9 1.1 1.3 2.4 1.3 3.7 0 3.3-2.7 6-6 6s-6-2.7-6-6 2.7-6 6-6c1.4 0 2.7.5 3.7 1.3l-4.4 4.4v.9h1zm4.4-6.3c-3.1-2.6-7.8-2.2-10.4.9-2.6 3.1-2.2 7.8.9 10.4 3.1 2.6 7.8 2.2 10.4-.9 2.3-2.7 2.3-6.7 0-9.4l3.8-3.8c4.7 5.2 4.2 13.2-1 17.9-5.2 4.7-13.2 4.2-17.9-1-4.7-5.2-4.2-13.2 1-17.9 4.8-4.3 12.1-4.3 17 0l-3.8 3.8z" clip-rule="evenodd"/>
</svg>
