<svg xmlns="http://www.w3.org/2000/svg" xml:space="preserve" viewBox="0 0 66 66">
  <path fill="#ffffff" d="m45.1 36.1 1.7 6.4-6.4 1.7-1.4-.8 5.6-1.5L33 35.1l-11.6 6.7 5.6 1.5-1.4.8-6.4-1.7 1.7-6.4 1.4-.8-1.5 5.6 11.6-6.7V20.7l-4.1 4.1v-1.6l4.7-4.7 4.7 4.7v1.6l-4.1-4.1v13.4l11.6 6.7-1.5-5.6 1.4.9zm7.4 6.5c.7.7.6 1.8-.1 2.5-.4.4-1 .6-1.6.4-6.7 9.8-20.1 12.3-30 5.6-2.2-1.5-4.1-3.4-5.6-5.6-.9.2-1.9-.4-2.1-1.3-.1-.6 0-1.2.4-1.6-5.1-10.7-.6-23.6 10.2-28.8 2.4-1.2 5-1.9 7.7-2.1.3-.9 1.2-1.4 2.2-1.2.6.2 1 .6 1.2 1.2 11.1 1 19.8 10.3 19.8 21.6 0 3.2-.7 6.4-2.1 9.3zM32.4 12.3c0 .3.3.6.6.6s.6-.3.6-.6-.3-.6-.6-.6-.6.3-.6.6zm-17.3 32c.3-.2.4-.5.2-.8-.2-.3-.5-.4-.8-.2-.3.2-.4.5-.2.8.2.3.5.3.8.2zm34.7.6c-.6-.8-.5-1.9.3-2.5.4-.3.9-.4 1.3-.4 1.3-2.7 2-5.7 2-8.8 0-10.6-8.2-19.5-18.8-20.3-.4.9-1.4 1.3-2.3 1-.4-.2-.8-.5-1-1-10.6.8-18.8 9.7-18.8 20.3 0 3 .7 6 2 8.8h.7c.9.3 1.5 1.2 1.2 2.1l-.3.6c6.4 9.3 19.1 11.6 28.4 5.2 2.1-1.2 3.9-3 5.3-5zm1.7-1.6c-.1-.1-.2-.1-.3-.1-.2 0-.4.1-.5.3-.2.3-.1.6.2.8s.6.1.8-.2c.2-.3.1-.6-.2-.8z"/>
  <path fill="none" d="M5 5.3h56v56H5z"/>
</svg>
